<?xml version="1.0" encoding="utf-8"?>
<!-- Generator: Adobe Illustrator 16.0.4, SVG Export Plug-In . SVG Version: 6.00 Build 0)  -->
<!DOCTYPE svg PUBLIC "-//W3C//DTD SVG 1.1//EN" "http://www.w3.org/Graphics/SVG/1.1/DTD/svg11.dtd">
<svg version="1.1" id="Layer_1" xmlns="http://www.w3.org/2000/svg" xmlns:xlink="http://www.w3.org/1999/xlink" x="0px" y="0px"
	 width="2171.691px" height="1086.709px" viewBox="0 0 2171.691 1086.709" enable-background="new 0 0 2171.691 1086.709"
	 xml:space="preserve">
<g>
	<polyline fill="none" stroke="#FF5353" stroke-miterlimit="10" points="24.002,1087.707 1085.845,25.861 2147.689,1087.705 	"/>
	<polyline fill="none" stroke="#FF5353" stroke-miterlimit="10" points="0,1086.709 1085.845,0.861 2171.691,1086.707 	"/>
	<polyline fill="none" stroke="#FF5353" stroke-miterlimit="10" points="48.843,1088.001 1085.846,50.998 2122.848,1087.999 	"/>
	<polyline fill="none" stroke="#FF5353" stroke-miterlimit="10" points="73.14,1088.842 1085.846,76.134 2098.552,1088.84 	"/>
	<polyline fill="none" stroke="#FF5353" stroke-miterlimit="10" points="99.48,1087.637 1085.846,101.27 2072.211,1087.635 	"/>
	<polyline fill="none" stroke="#FF5353" stroke-miterlimit="10" points="127.025,1085.229 1085.846,126.406 2044.666,1085.227 	"/>
	<polyline fill="none" stroke="#FF5353" stroke-miterlimit="10" points="150.275,1087.115 1085.846,151.543 2021.416,1087.113 	"/>
	<polyline fill="none" stroke="#FF5353" stroke-miterlimit="10" points="172.275,1090.251 1085.845,176.679 1999.415,1090.249 	"/>
	<polyline fill="none" stroke="#FF5353" stroke-miterlimit="10" points="200.48,1087.183 1085.846,201.815 1971.211,1087.181 	"/>
	<polyline fill="none" stroke="#FF5353" stroke-miterlimit="10" points="225.934,1086.865 1085.847,226.952 1945.757,1086.863 	"/>
	<polyline fill="none" stroke="#FF5353" stroke-miterlimit="10" points="247.275,1090.66 1085.846,252.088 1924.416,1090.658 	"/>
	<polyline fill="none" stroke="#FF5353" stroke-miterlimit="10" points="274.275,1088.797 1085.846,277.225 1897.415,1088.794 	"/>
	<polyline fill="none" stroke="#FF5353" stroke-miterlimit="10" points="300.139,1088.069 1085.846,302.361 1871.553,1088.066 	"/>
	<polyline fill="none" stroke="#FF5353" stroke-miterlimit="10" points="324.934,1088.41 1085.846,327.497 1846.758,1088.408 	"/>
	<polyline fill="none" stroke="#FF5353" stroke-miterlimit="10" points="351.275,1087.206 1085.846,352.634 1820.417,1087.205 	"/>
	<polyline fill="none" stroke="#FF5353" stroke-miterlimit="10" points="374.662,1088.955 1085.846,377.77 1797.03,1088.955 	"/>
	<polyline fill="none" stroke="#FF5353" stroke-miterlimit="10" points="401.274,1087.479 1085.846,402.906 1770.417,1087.479 	"/>
	<polyline fill="none" stroke="#FF5353" stroke-miterlimit="10" points="425.39,1088.5 1085.846,428.043 1746.302,1088.498 	"/>
	<polyline fill="none" stroke="#FF5353" stroke-miterlimit="10" points="450.139,1088.887 1085.846,453.18 1721.553,1088.886 	"/>
	<polyline fill="none" stroke="#FF5353" stroke-miterlimit="10" points="474.297,1089.865 1085.846,478.315 1697.395,1089.864 	"/>
	<polyline fill="none" stroke="#FF5353" stroke-miterlimit="10" points="499.726,1089.573 1085.846,503.452 1671.966,1089.572 	"/>
	<polyline fill="none" stroke="#FF5353" stroke-miterlimit="10" points="525.433,1089.002 1085.846,528.588 1646.259,1089.001 	"/>
	<polyline fill="none" stroke="#FF5353" stroke-miterlimit="10" points="550.81,1088.625 1085.846,553.588 1620.882,1088.624 	"/>
</g>
<polygon fill="#FF504B" points="1077.846,97.919 1085.846,105.919 1093.846,97.919 "/>
<line fill="none" stroke="#FF504B" stroke-miterlimit="10" x1="1085.846" y1="-0.001" x2="1085.846" y2="1085.229"/>
</svg>
