<?xml version="1.0" encoding="utf-8"?>
<!-- Generator: Adobe Illustrator 16.0.4, SVG Export Plug-In . SVG Version: 6.00 Build 0)  -->
<!DOCTYPE svg PUBLIC "-//W3C//DTD SVG 1.1//EN" "http://www.w3.org/Graphics/SVG/1.1/DTD/svg11.dtd">
<svg version="1.1" id="Layer_1" xmlns="http://www.w3.org/2000/svg" xmlns:xlink="http://www.w3.org/1999/xlink" x="0px" y="0px"
	 width="617px" height="805px" viewBox="0 0 617 805" enable-background="new 0 0 617 805" xml:space="preserve">
<g>
	<polyline fill="none" stroke="#16261F" stroke-linecap="round" stroke-miterlimit="10" points="0,182.5 308.5,491.5 617,182.5 	"/>
	<polyline fill="none" stroke="#16261F" stroke-linecap="round" stroke-miterlimit="10" points="0,167.319 308.5,476.319 
		617,167.319 	"/>
	<polyline fill="none" stroke="#16261F" stroke-linecap="round" stroke-miterlimit="10" points="0.001,152.139 308.5,461.139 
		617,152.139 	"/>
	<polyline fill="none" stroke="#16261F" stroke-linecap="round" stroke-miterlimit="10" points="0,136.958 308.5,445.959 
		617,136.958 	"/>
	<polyline fill="none" stroke="#16261F" stroke-linecap="round" stroke-miterlimit="10" points="0,121.778 308.5,430.778 
		617,121.778 	"/>
	<polyline fill="none" stroke="#16261F" stroke-linecap="round" stroke-miterlimit="10" points="0,106.598 308.5,415.598 
		617,106.598 	"/>
	<polyline fill="none" stroke="#16261F" stroke-linecap="round" stroke-miterlimit="10" points="0,91.418 308.5,400.418 617,91.418 
			"/>
	<polyline fill="none" stroke="#16261F" stroke-linecap="round" stroke-miterlimit="10" points="0,76.237 308.5,385.237 617,76.237 
			"/>
	<polyline fill="none" stroke="#16261F" stroke-linecap="round" stroke-miterlimit="10" points="0,61.057 308.5,370.057 617,61.057 
			"/>
	<polyline fill="none" stroke="#16261F" stroke-linecap="round" stroke-miterlimit="10" points="0,45.876 308.5,354.877 617,45.876 
			"/>
	<polyline fill="none" stroke="#16261F" stroke-linecap="round" stroke-miterlimit="10" points="0,30.696 308.5,339.696 617,30.696 
			"/>
	<polyline fill="none" stroke="#16261F" stroke-linecap="round" stroke-miterlimit="10" points="0.001,15.516 308.5,324.516 
		617,15.516 	"/>
	<polyline fill="none" stroke="#16261F" stroke-linecap="round" stroke-miterlimit="10" points="-0.001,0.335 308.499,309.336 
		617,0.335 	"/>
	<polyline fill="none" stroke="#16261F" stroke-linecap="round" stroke-miterlimit="10" points="0,-14.845 308.5,294.155 
		617,-14.845 	"/>
	<polyline fill="none" stroke="#16261F" stroke-linecap="round" stroke-miterlimit="10" points="0,-30.025 308.5,278.975 
		617,-30.025 	"/>
	<polyline fill="none" stroke="#16261F" stroke-linecap="round" stroke-miterlimit="10" points="0.001,-45.205 308.5,263.795 
		617,-45.205 	"/>
	<polyline fill="none" stroke="#16261F" stroke-linecap="round" stroke-miterlimit="10" points="0,-60.385 308.5,248.615 
		617,-60.385 	"/>
	<polyline fill="none" stroke="#16261F" stroke-linecap="round" stroke-miterlimit="10" points="0,-75.566 308.5,233.434 
		617,-75.566 	"/>
	<polyline fill="none" stroke="#16261F" stroke-linecap="round" stroke-miterlimit="10" points="0,-90.747 308.499,218.253 
		617,-90.747 	"/>
	<polyline fill="none" stroke="#16261F" stroke-linecap="round" stroke-miterlimit="10" points="0,-105.927 308.5,203.073 
		617,-105.927 	"/>
	<polyline fill="none" stroke="#16261F" stroke-linecap="round" stroke-miterlimit="10" points="0,-121.106 308.5,187.894 
		617,-121.106 	"/>
	<polyline fill="none" stroke="#16261F" stroke-linecap="round" stroke-miterlimit="10" points="0,-136.288 308.5,172.713 
		617,-136.288 	"/>
	<polyline fill="none" stroke="#16261F" stroke-linecap="round" stroke-miterlimit="10" points="0,-151.468 308.5,157.532 
		617,-151.468 	"/>
	<polyline fill="none" stroke="#16261F" stroke-linecap="round" stroke-miterlimit="10" points="0,-166.648 308.5,142.352 
		617,-166.648 	"/>
	<polyline fill="none" stroke="#16261F" stroke-linecap="round" stroke-miterlimit="10" points="0,-181.828 308.5,127.172 
		617,-181.828 	"/>
	<polyline fill="none" stroke="#16261F" stroke-linecap="round" stroke-miterlimit="10" points="0,-197.009 308.5,111.991 
		617,-197.009 	"/>
	<polyline fill="none" stroke="#16261F" stroke-linecap="round" stroke-miterlimit="10" points="0,-212.189 308.5,96.811 
		617,-212.189 	"/>
	<polyline fill="none" stroke="#16261F" stroke-linecap="round" stroke-miterlimit="10" points="0,-227.369 308.5,81.631 
		617,-227.369 	"/>
	<polyline fill="none" stroke="#16261F" stroke-linecap="round" stroke-miterlimit="10" points="0,-242.55 308.5,66.451 
		617,-242.55 	"/>
	<polyline fill="none" stroke="#16261F" stroke-linecap="round" stroke-miterlimit="10" points="0,-257.73 308.5,51.27 617,-257.73 
			"/>
	<polyline fill="none" stroke="#16261F" stroke-linecap="round" stroke-miterlimit="10" points="0,-272.911 308.5,36.09 
		617,-272.911 	"/>
	<polyline fill="none" stroke="#16261F" stroke-linecap="round" stroke-miterlimit="10" points="0,-288.091 308.5,20.909 
		617,-288.091 	"/>
	<polyline fill="none" stroke="#16261F" stroke-linecap="round" stroke-miterlimit="10" points="0,-303.271 308.5,5.729 
		617,-303.271 	"/>
</g>
<g>
	<polyline fill="none" stroke="#16261F" stroke-linecap="round" stroke-miterlimit="10" points="0,805.073 308.5,1114.073 
		617,805.073 	"/>
	<polyline fill="none" stroke="#16261F" stroke-linecap="round" stroke-miterlimit="10" points="0,789.894 308.5,1098.894 
		617,789.894 	"/>
	<polyline fill="none" stroke="#16261F" stroke-linecap="round" stroke-miterlimit="10" points="0,774.713 308.5,1083.713 
		617,774.713 	"/>
	<polyline fill="none" stroke="#16261F" stroke-linecap="round" stroke-miterlimit="10" points="0,759.532 308.5,1068.532 
		617,759.532 	"/>
	<polyline fill="none" stroke="#16261F" stroke-linecap="round" stroke-miterlimit="10" points="0,744.352 308.5,1053.352 
		617,744.352 	"/>
	<polyline fill="none" stroke="#16261F" stroke-linecap="round" stroke-miterlimit="10" points="0,729.172 308.5,1038.172 
		617,729.172 	"/>
	<polyline fill="none" stroke="#16261F" stroke-linecap="round" stroke-miterlimit="10" points="0,713.991 308.5,1022.991 
		617,713.991 	"/>
	<polyline fill="none" stroke="#16261F" stroke-linecap="round" stroke-miterlimit="10" points="0,698.811 308.5,1007.811 
		617,698.811 	"/>
	<polyline fill="none" stroke="#16261F" stroke-linecap="round" stroke-miterlimit="10" points="0,683.631 308.5,992.631 
		617,683.631 	"/>
	<polyline fill="none" stroke="#16261F" stroke-linecap="round" stroke-miterlimit="10" points="0,668.45 308.5,977.451 617,668.45 
			"/>
	<polyline fill="none" stroke="#16261F" stroke-linecap="round" stroke-miterlimit="10" points="0,653.27 308.5,962.27 617,653.27 	
		"/>
	<polyline fill="none" stroke="#16261F" stroke-linecap="round" stroke-miterlimit="10" points="0,638.09 308.5,947.09 617,638.09 	
		"/>
	<polyline fill="none" stroke="#16261F" stroke-linecap="round" stroke-miterlimit="10" points="0,622.909 308.5,931.909 
		617,622.909 	"/>
	<polyline fill="none" stroke="#16261F" stroke-linecap="round" stroke-miterlimit="10" points="0,607.729 308.5,916.729 
		617,607.729 	"/>
	<polyline fill="none" stroke="#16261F" stroke-linecap="round" stroke-miterlimit="10" points="0,592.549 308.5,901.549 
		617,592.549 	"/>
	<polyline fill="none" stroke="#16261F" stroke-linecap="round" stroke-miterlimit="10" points="0,577.368 308.5,886.368 
		617,577.368 	"/>
	<polyline fill="none" stroke="#16261F" stroke-linecap="round" stroke-miterlimit="10" points="0,562.188 308.5,871.188 
		617,562.188 	"/>
	<polyline fill="none" stroke="#16261F" stroke-linecap="round" stroke-miterlimit="10" points="0,547.008 308.5,856.008 
		617,547.008 	"/>
	<polyline fill="none" stroke="#16261F" stroke-linecap="round" stroke-miterlimit="10" points="0,531.828 308.5,840.827 
		617,531.828 	"/>
	<polyline fill="none" stroke="#16261F" stroke-linecap="round" stroke-miterlimit="10" points="0,516.646 308.5,825.646 
		617,516.646 	"/>
	<polyline fill="none" stroke="#16261F" stroke-linecap="round" stroke-miterlimit="10" points="0,501.467 308.5,810.467 
		617,501.467 	"/>
	<polyline fill="none" stroke="#16261F" stroke-linecap="round" stroke-miterlimit="10" points="0,486.287 308.5,795.287 
		617,486.287 	"/>
	<polyline fill="none" stroke="#16261F" stroke-linecap="round" stroke-miterlimit="10" points="0,471.106 308.5,780.106 
		617,471.106 	"/>
	<polyline fill="none" stroke="#16261F" stroke-linecap="round" stroke-miterlimit="10" points="0,455.926 308.5,764.926 
		617,455.926 	"/>
	<polyline fill="none" stroke="#16261F" stroke-linecap="round" stroke-miterlimit="10" points="0,440.746 308.5,749.746 
		617,440.746 	"/>
	<polyline fill="none" stroke="#16261F" stroke-linecap="round" stroke-miterlimit="10" points="0,425.565 308.5,734.564 
		617,425.565 	"/>
	<polyline fill="none" stroke="#16261F" stroke-linecap="round" stroke-miterlimit="10" points="0,410.385 308.5,719.385 
		617,410.385 	"/>
	<polyline fill="none" stroke="#16261F" stroke-linecap="round" stroke-miterlimit="10" points="0,395.205 308.5,704.205 
		617,395.205 	"/>
	<polyline fill="none" stroke="#16261F" stroke-linecap="round" stroke-miterlimit="10" points="0,380.024 308.5,689.024 
		617,380.024 	"/>
	<polyline fill="none" stroke="#16261F" stroke-linecap="round" stroke-miterlimit="10" points="0,364.844 308.5,673.844 
		617,364.844 	"/>
	<polyline fill="none" stroke="#16261F" stroke-linecap="round" stroke-miterlimit="10" points="0,349.664 308.5,658.664 
		617,349.664 	"/>
	<polyline fill="none" stroke="#16261F" stroke-linecap="round" stroke-miterlimit="10" points="0,334.483 308.5,643.483 
		617,334.483 	"/>
	<polyline fill="none" stroke="#16261F" stroke-linecap="round" stroke-miterlimit="10" points="0,319.303 308.5,628.303 
		617,319.303 	"/>
	<polyline fill="none" stroke="#16261F" stroke-linecap="round" stroke-miterlimit="10" points="0,304.123 308.5,613.123 
		617,304.123 	"/>
	<polyline fill="none" stroke="#16261F" stroke-linecap="round" stroke-miterlimit="10" points="0,288.942 308.5,597.942 
		617,288.942 	"/>
	<polyline fill="none" stroke="#16261F" stroke-linecap="round" stroke-miterlimit="10" points="0,273.762 308.5,582.762 
		617,273.762 	"/>
	<polyline fill="none" stroke="#16261F" stroke-linecap="round" stroke-miterlimit="10" points="0,258.582 308.5,567.582 
		617,258.582 	"/>
	<polyline fill="none" stroke="#16261F" stroke-linecap="round" stroke-miterlimit="10" points="0,243.401 308.5,552.401 
		617,243.401 	"/>
	<polyline fill="none" stroke="#16261F" stroke-linecap="round" stroke-miterlimit="10" points="0,228.221 308.5,537.222 
		617,228.221 	"/>
	<polyline fill="none" stroke="#16261F" stroke-linecap="round" stroke-miterlimit="10" points="0,213.041 308.5,522.041 
		617,213.041 	"/>
	<polyline fill="none" stroke="#16261F" stroke-linecap="round" stroke-miterlimit="10" points="0,197.86 308.5,506.861 617,197.86 
			"/>
</g>
</svg>
