<?xml version="1.0" encoding="utf-8"?>
<!-- Generator: Adobe Illustrator 16.0.4, SVG Export Plug-In . SVG Version: 6.00 Build 0)  -->
<!DOCTYPE svg PUBLIC "-//W3C//DTD SVG 1.1//EN" "http://www.w3.org/Graphics/SVG/1.1/DTD/svg11.dtd">
<svg version="1.1" id="Layer_1" xmlns="http://www.w3.org/2000/svg" xmlns:xlink="http://www.w3.org/1999/xlink" x="0px" y="0px"
	 width="42px" height="42px" viewBox="0 0 42 42" enable-background="new 0 0 42 42" xml:space="preserve">
<g>
	<path fill="#ff504b" d="M20.999,3.793c-9.99,0-16.99,7.847-16.99,17.217c0,9.708,7.788,17.216,16.99,17.216
		c9.201,0,16.991-7.508,16.991-17.216C37.99,11.64,30.991,3.793,20.999,3.793z"/>
	<path fill="#01351e" d="M13.856,0.011H0v13.59C2.295,7.246,7.442,2.201,13.856,0.011z"/>
	<path fill="#01351e" d="M41.998,13.6V0.011H28.141C34.556,2.201,39.703,7.246,41.998,13.6z"/>
	<path fill="#01351e" d="M0,28.632v13.377h13.679C7.32,39.874,2.265,35,0,28.632z"/>
	<path fill="#01351e" d="M42,28.632v13.377H28.32C34.68,39.874,39.733,35,42,28.632z"/>
</g>
</svg>
