<?xml version="1.0" encoding="utf-8"?>
<!-- Generator: Adobe Illustrator 16.0.4, SVG Export Plug-In . SVG Version: 6.00 Build 0)  -->
<!DOCTYPE svg PUBLIC "-//W3C//DTD SVG 1.1//EN" "http://www.w3.org/Graphics/SVG/1.1/DTD/svg11.dtd">
<svg version="1.1" id="Layer_1" xmlns="http://www.w3.org/2000/svg" xmlns:xlink="http://www.w3.org/1999/xlink" x="0px" y="0px"
	 width="38px" height="84px" viewBox="0 0 38 84" enable-background="new 0 0 38 84" xml:space="preserve">
<g>
	<path fill="#1D3229" d="M12.784,15.546c0.574,0.687,0.277,1.747-0.505,2.185c-1.379,0.622-3.173,0.324-3.955-0.94
		c-0.415-0.919,0.158-1.816,1.055-2.093C10.552,14.467,11.955,14.558,12.784,15.546z"/>
	<path fill="#1D3229" d="M35.965,15.142c1.286,1.799-0.556,5.342-1.968,5.298c-0.511-0.017-0.189,2.248-0.994,3.143
		c-0.1,0.114-0.713,0.024-0.805-0.275c-0.3-1.609,1.24-3.198,0.504-4.737c-0.508-1.219-2.095-1.057-3.176-1.379
		c-7.038-2.019-13.824-3.854-21.297-4.103c-0.3,0.092-0.737,0.162-0.921,0.415c-0.688,1.588,0.014,3.292-0.663,4.853
		c-0.058,0.132-1.075,0.069-1.128-0.045c-0.61-1.355,0.637-3.358-0.111-3.812c-0.965-0.586-4.858-0.416-5.066-2.578
		c-0.162-1.587,1.678-2.416,1.653-3.98C1.901,7.642,1.672,7.321,1.74,6.906C1.623,5.894,2.062,6.74,2.082,5.751
		C1.943,4.027,1.62,2.555,2.311,0.968c0.068-0.414,0.551-0.759,0.988-0.829c3.081,0.229,6.003,0.539,9.084,0.768
		c3.657,0.181,7.153-0.405,10.695,0.467c4.508,1.032,9.2,0.045,13.73,0.939c0.413,0.069,0.783,0.414,0.852,0.85
		c0.163,2.438-1.769,5.302-1.215,8.229c0.198,1.047-0.759,2.001-0.665,3.15C35.896,14.705,35.851,14.98,35.965,15.142z
		 M11.183,59.385c0.34-0.371,0.508-1.256,0.562-1.434c0.547-1.719-0.63-3.166-0.021-3.703c0.21-0.185,0.51-0.363,0.716-0.756
		c0.437-1.771,1.263-3.335,0.871-5.242c-0.184-0.599,0.852-0.854,0.689-1.589c-0.092-0.298-0.301-0.758-0.115-1.011
		c0.482-0.346,0.437-0.922,0.482-1.197c-0.003-2.552,0.916-4.669,2.777-6.487c0.368-0.506,0.459-1.058,0.414-1.632
		c-0.277-1.749-0.141-3.427,0.411-5.038c0.804-2.277,1.33-4.6,2.41-6.832c0.253-0.667,0.757-1.15,1.379-1.473
		c1.079-0.53,2.092,0.205,3.287-0.163c0.14,0.023,0.358-0.575,0.253-0.667c-1.42-1.264-5.929-1.871-8.804-2.49
		c-3.312-0.55-6.275-1.122-9.688-0.58c-0.438,0.069-0.402,0.925-0.022,1.201c1.165,0.846,2.394,0.752,3.749,1.119
		c0.116,0.161,0.53,0.229,0.322,0.621c-1.515,2.301-3.93,4.027-4.802,6.718c-0.94,3.105,0.073,6.394,1.775,8.945
		c-0.78,0.438-1.654,0.576-2.206,1.335c-0.576,0.897-0.459,1.909-0.642,3.014C3.854,42,2.244,42.299,2.269,43.863
		c0.162,1.586,1.242,2.76,1.565,4.23c0.141,0.874-0.4,1.139,0.278,2.598c0.639,1.373,1.887,2.299,1.957,3.587
		c0.069,1.288-0.712,2.577-0.642,3.865c-0.114,1.54,0.899,3.126,2.556,3.401c0.551,0.092,1.264,0.068,1.839,0.021
		c1.312-0.207,3.148-1.334,4.696-1.058c1.416,0.253,3.856-1.776,5.812-2.444c0.484,2.207-0.16,4.369,0.048,6.531
		c0.118,1.862-0.733,3.564-1.168,5.336c-0.207,1.242,0.116,2.714-0.228,3.934c-0.161,0.967-0.598,1.886-0.759,2.852
		c-0.181,2.807,0.12,6.969,3.64,7.127c0.689,0.115,1.333-0.346,1.585-1.013c0.528-1.472,0.78-2.99,1.032-4.509
		c0.231-0.528,0.459-1.059,0.689-1.586c0.46-1.059,0.229-2.23,0.688-3.289c1.034-1.955,1.77-3.819,2.25-5.867
		c0.16-0.967,0.712-1.725,0.735-2.713c-0.07-1.288,0.112-2.393,0.597-3.589c1.123-3.358,2.063-6.463,3.466-9.775
		c0.689-1.588,1.631-2.991,1.492-4.716c0.021-0.989-0.255-1.886-0.53-2.783c-0.924-4.69-1.271-9.428-2.631-14.049
		c-0.347-1.334-1.106-2.736-0.624-3.933c0.252-0.667,1.708,0.296,2.115-0.783c0.252-0.667,0.068-1.265-0.599-1.518
		c-1.357-0.367-2.646-1.148-4.071-1.102c-0.073,0.12-0.413,0.783-0.161,0.965c0.507,0.368,1.151,0.76,1.197,1.334
		c0.899,4.829,1.984,9.404,2.63,14.05c0.53,2.782,0.809,5.382,1.202,8.14c-2.251,5.866-4.341,11.617-5.647,17.781
		c-0.045,0.275-0.736,0.162-0.667,0.598c0.231,0.322,0.46,0.645,0.414,0.92c-0.045,0.276-0.483,0.346-0.666,0.599
		c-0.229,0.529,0.576,0.804,0.207,1.31c-0.183,0.254-0.619,0.324-0.781,0.438c-0.206,0.392,0.3,0.759,0.393,1.058
		c0.068,0.438,0,0.852-0.207,1.242c-0.551,0.76-0.851,1.702-1.401,2.461c-0.391,0.645,0.116,1.863-0.159,2.669
		c-0.252,0.667-0.252,1.517-0.851,1.702c-1.906,0.393-1.698,2.554-2.479,3.842c-1.658-2.826,1.318-7.297,1.11-8.395
		c-0.394-2.08,0.444-4.393,1.455-6.21c-0.483-2.208-0.209-4.715,1.101-6.624c0.184-0.254,0.275-0.806,0.184-1.104
		c-0.83-3.541-0.074-7.244,1.58-10.373c-0.736-0.688-2.208-0.366-2.277-1.653c0.045-1.127,1.218-1.357,1.907-2.095
		c0.022-0.139,0.069-0.415,0.069-0.415c-1.334-0.505-3.176-0.527-3.359-1.975c-0.116-1.863,2.32-2.876,2.251-5.015
		c-0.092-0.299-0.529-0.229-0.667-0.252c-0.506,0.482-0.645,1.311-1.171,1.932c-1.563,1.725-3.312,2.854-4.874,4.579
		c-1.378,1.473-1.561,3.428-2.273,5.152c-0.161,0.116-0.482,0.346-0.506,0.484c0.692,2.666-0.435,5.175-1.651,7.383
		c-0.736,1.013-1.354,2.19-2.545,2.559C11.083,59.809,11.183,59.385,11.183,59.385z M22.392,82.372
		c-0.117,0.069-0.414-0.069-0.391-0.208c-0.116-1.012,0.257-1.807,0.596-2.736c0.05-0.134,0.231-0.529,0.505-0.483
		c0.806,0.276,0.07,1.288-0.022,1.84C22.988,81.336,22.995,82.018,22.392,82.372z M9.591,60.394
		c-0.598,0.185-1.058,0.392-1.586,0.162c-1.058-0.459-1.609-1.401-1.728-2.413c0-0.851,0.14-1.68,0.827-2.416
		c0.829-0.713,2.023-1.082,2.921-0.508c1.013,0.736,0.968,1.854,0.784,2.967C10.672,59.014,10.374,59.956,9.591,60.394z"/>
	<path fill="#1D3229" d="M8.21,57.612c-0.391,0.644-0.482,1.196-0.597,1.886c-0.805-0.275-0.76-1.402-0.646-2.092
		c0.23-0.529,0.46-1.059,0.966-1.542c0.643-0.46,1.355-0.483,2.001-0.093c0.252,0.184,0.666,1.104,0.252,1.034
		C9.382,56.531,8.601,56.968,8.21,57.612z"/>
</g>
</svg>
