<?xml version="1.0" encoding="utf-8"?>
<!-- Generator: Adobe Illustrator 16.0.4, SVG Export Plug-In . SVG Version: 6.00 Build 0)  -->
<!DOCTYPE svg PUBLIC "-//W3C//DTD SVG 1.1//EN" "http://www.w3.org/Graphics/SVG/1.1/DTD/svg11.dtd">
<svg version="1.1" id="Layer_1" xmlns="http://www.w3.org/2000/svg" xmlns:xlink="http://www.w3.org/1999/xlink" x="0px" y="0px"
	 width="9.936px" height="13.936px" viewBox="0 0 9.936 13.936" enable-background="new 0 0 9.936 13.936" xml:space="preserve">
<g>
	<path fill="#16261F" d="M2.936,12.936c0-0.55,0.45-1,1-1l0,0c0.55,0,1,0.45,1,1l0,0c0,0.55-0.45,1-1,1l0,0
		C3.386,13.936,2.936,13.485,2.936,12.936z"/>
</g>
<g>
	<path fill="#16261F" d="M7.936,5.936c0-0.55,0.45-1,1-1l0,0c0.55,0,1,0.45,1,1l0,0c0,0.55-0.45,1-1,1l0,0
		C8.386,6.936,7.936,6.485,7.936,5.936z"/>
</g>
</svg>
